# xmcd
#
# Track frame offsets:
#	150
#	10383
#	22162
#	38517
#	55541
#	69139
#	81906
#	94132
#	108281
#	120846
#	133549
#	147857
#	163873
#	173093
#	188380
#	199122
#	214038
#	228361
#	242061
#	253591
#	268318
#	281381
#	294097
#	303679
#	317923
#	332843
#
# Disc length: 4620 seconds
# Revision: 0
# Processed by: cddbd v1.5.2PL0 Copyright (c) Steve Scherf et al.
# Submitted via: dBpowerAMP V12.0
#
DISCID=67120a1a
DTITLE=Slim Dusty - Odds and Sods CD4 1968-1973
DYEAR=2017
DGENRE=Country
TTITLE0=I've Been Talking To Grannie
TTITLE1=Little Old One Horse Pub
TTITLE2=My Son
TTITLE3=Ah Forget It
TTITLE4=I Heard The Bluebirds Sing
TTITLE5=Last Train To Nowhere
TTITLE6=Sweet Thang
TTITLE7=The Sunset Years Of Life
TTITLE8=Big Time
TTITLE9=City Brother
TTITLE10=Rodeo Riders
TTITLE11=Sniff The Digger's Dog
TTITLE12=The Cunnin' Roo Shooter
TTITLE13=Where The Desert Flowers Bloom
TTITLE14=Just Lovin' You
TTITLE15=The Drunkard
TTITLE16=The Ballad Of Henry Lawson
TTITLE17=Guess Who Felt Silly
TTITLE18=I've Got That Lonesome Feeling
TTITLE19=Mississippi Delta Blues
TTITLE20=Country Livin'
TTITLE21=Jesus Takes A Hold
TTITLE22=Rewing
TTITLE23=Sadbess And I Wander Home
TTITLE24=I Broke A Promise
TTITLE25=Streets Of Sydney
EXTD=
EXTT0=
EXTT1=
EXTT2=
EXTT3=
EXTT4=
EXTT5=
EXTT6=
EXTT7=
EXTT8=
EXTT9=
EXTT10=
EXTT11=
EXTT12=
EXTT13=
EXTT14=
EXTT15=
EXTT16=
EXTT17=
EXTT18=
EXTT19=
EXTT20=
EXTT21=
EXTT22=
EXTT23=
EXTT24=
EXTT25=
PLAYORDER=
